<svg version="1.1" xmlns="http://www.w3.org/2000/svg" xmlns:xlink="http://www.w3.org/1999/xlink" x="0px" y="0px"
	 width="24px" height="24px" viewBox="0 0 24 24">
<style type="text/css">
	.st0{fill:#515151;}
</style>
<!-- SVG -->
	<!-- <path class="st0" d="M1.7,22.3c5.7-5.7,11.3-5.7,17,0c3.3-3.3,3.5-5.3,0.8-6c2.7,0.7,3.5-1.1,2.3-5.6s-3.3-5.2-6.3-2.1
	c3-3,2.3-5.2-2.1-6.3S7,1.8,7.7,4.6C7,1.8,5,2.1,1.7,5.3C7.3,11,7.3,16.7,1.7,22.3"/>
</svg>-->

<path d="M2331 5109 c-326 -29 -646 -123 -949 -280 -230 -118 -411 -250 -606
-438 -671 -654 -930 -1608 -681 -2516 185 -675 662 -1262 1287 -1584 583 -301
1231 -369 1863 -196 854 234 1546 926 1780 1780 241 881 6 1808 -625 2459
-544 562 -1297 843 -2069 775z m-456 -1054 c50 -20 120 -85 166 -155 179 -271
148 -733 -63 -944 -75 -75 -139 -102 -223 -93 -67 7 -118 33 -178 92 -123 122
-184 314 -174 550 6 149 21 216 77 333 42 87 117 174 179 206 61 32 151 36
216 11z m1587 -11 c61 -32 136 -119 178 -206 56 -117 71 -184 77 -333 10 -236
-51 -428 -174 -550 -60 -59 -111 -85 -178 -92 -84 -9 -148 18 -223 93 -211
211 -242 673 -63 944 67 102 152 164 236 172 42 4 109 -8 147 -28z m-2426
-1335 c70 -33 85 -68 101 -238 20 -214 65 -385 139 -533 195 -390 533 -662
947 -763 414 -101 849 -12 1192 243 133 100 282 264 367 407 121 203 176 381
201 646 16 170 31 205 101 238 55 27 102 26 156 -2 86 -45 103 -117 79 -335
-44 -404 -221 -774 -509 -1062 -693 -693 -1807 -693 -2500 0 -288 288 -465
658 -509 1062 -24 218 -7 290 79 335 54 28 101 29 156 2z"/>
</g>
</svg>
